<svg width="26" height="26" viewBox="0 0 26 26" fill="none" xmlns="http://www.w3.org/2000/svg">
<path fill-rule="evenodd" clip-rule="evenodd" d="M12.9746 4H10.9746L10.6154 6.1555C8.33148 6.68662 6.51477 8.5291 6.08018 10.9193L5.33238 15.0323C5.10716 16.271 4.31187 17.3314 3.18576 17.8944L2.97461 18V20C2.97461 20.7903 5.03911 21.4773 8.05573 21.8015C8.21163 22.5637 8.58785 23.2701 9.14618 23.8284C9.89633 24.5786 10.9137 25 11.9746 25C13.0355 25 14.0529 24.5786 14.803 23.8284C15.3614 23.2701 15.7376 22.5637 15.8935 21.8015C18.9101 21.4773 20.9746 20.7903 20.9746 20V18L20.7635 17.8944C19.6374 17.3314 18.8421 16.271 18.6168 15.0323L17.869 10.9194C17.4344 8.52911 15.6177 6.68663 13.3339 6.1555L12.9746 4ZM13.7279 21.9623C13.1614 21.987 12.5752 22 11.9746 22C11.374 22 10.7878 21.987 10.2213 21.9623C10.3116 22.1268 10.4253 22.2791 10.5604 22.4142C10.9355 22.7893 11.4442 23 11.9746 23C12.505 23 13.0138 22.7893 13.3888 22.4142C13.5239 22.2791 13.6376 22.1268 13.7279 21.9623ZM7.30012 15.39L8.04792 11.2771C8.39296 9.37941 10.0458 8 11.9746 8C13.9034 8 15.5563 9.37941 15.9013 11.2771L16.6491 15.39C16.9237 16.9001 17.7631 18.2336 18.9746 19.1334V19.163C18.7205 19.2553 18.3705 19.3587 17.9142 19.4605C16.4706 19.7825 14.3736 20 11.9746 20C9.5756 20 7.47867 19.7825 6.03506 19.4605C5.5787 19.3587 5.22877 19.2553 4.97461 19.163V19.1334C6.18617 18.2336 7.02555 16.9001 7.30012 15.39Z" fill="#191817"/>
<rect x="16" y="2" width="8" height="8" rx="4" fill="#F7614A"/>
<circle cx="20" cy="6" r="5" fill="#F7614A" stroke="#F5F3F1" stroke-width="2"/>
</svg>
