<svg width="16" height="16" viewBox="0 0 16 16" fill="none" xmlns="http://www.w3.org/2000/svg">
<g clip-path="url(#clip0_7248_16796)">
<path fill-rule="evenodd" clip-rule="evenodd" d="M4.81956 11.1809C2.53036 10.6154 0.833008 8.54788 0.833008 6.08396C0.833008 3.18448 3.1835 0.833984 6.08298 0.833984C8.54684 0.833984 10.6143 2.53125 11.1799 4.82038C13.4691 5.38594 15.1665 7.45342 15.1665 9.91733C15.1665 12.8168 12.816 15.1673 9.91648 15.1673C7.45262 15.1673 5.38518 13.47 4.81956 11.1809ZM4.67834 9.562C4.8532 6.94571 6.94471 4.85415 9.56098 4.67921C9.00505 3.30413 7.65731 2.33398 6.08298 2.33398C4.01193 2.33398 2.33301 4.01291 2.33301 6.08396C2.33301 7.65833 3.30321 9.0061 4.67834 9.562ZM6.43849 11.3221C6.99442 12.6972 8.34215 13.6673 9.91648 13.6673C11.9875 13.6673 13.6665 11.9884 13.6665 9.91733C13.6665 8.34296 12.6963 6.9952 11.3211 6.4393C11.1463 9.05558 9.05475 11.1471 6.43849 11.3221ZM9.83203 6.16829C7.82801 6.21257 6.21165 7.82897 6.16743 9.833C8.17145 9.78872 9.78781 8.17232 9.83203 6.16829Z" fill="#191817"/>
</g>
<defs>
<clipPath id="clip0_7248_16796">
<rect width="16" height="16" fill="white"/>
</clipPath>
</defs>
</svg>
