<svg width="26" height="26" viewBox="0 0 26 26" fill="none" xmlns="http://www.w3.org/2000/svg">
<path d="M7.5 15.25C8.19036 15.25 8.75 14.6904 8.75 14C8.75 13.3096 8.19036 12.75 7.5 12.75C6.80964 12.75 6.25 13.3096 6.25 14C6.25 14.6904 6.80964 15.25 7.5 15.25Z" fill="#191817"/>
<path d="M12 15.25C12.6904 15.25 13.25 14.6904 13.25 14C13.25 13.3096 12.6904 12.75 12 12.75C11.3096 12.75 10.75 13.3096 10.75 14C10.75 14.6904 11.3096 15.25 12 15.25Z" fill="#191817"/>
<path d="M17.75 14C17.75 14.6904 17.1904 15.25 16.5 15.25C15.8096 15.25 15.25 14.6904 15.25 14C15.25 13.3096 15.8096 12.75 16.5 12.75C17.1904 12.75 17.75 13.3096 17.75 14Z" fill="#191817"/>
<path fill-rule="evenodd" clip-rule="evenodd" d="M2 23L6.55342 22.1721C8.02763 22.7035 9.82985 23 12 23C20 23 23 18.9706 23 14C23 9.02944 20 5 12 5C4 5 1 9.02944 1 14C1 16.0375 1.50407 17.9168 2.64995 19.4253L2 23ZM4.77521 18.9167L4.24257 18.2155C3.42208 17.1354 3 15.7136 3 14C3 11.9168 3.61913 10.2573 4.86255 9.10009C6.1235 7.92656 8.31553 7 12 7C15.6845 7 17.8765 7.92656 19.1374 9.10009C20.3809 10.2573 21 11.9168 21 14C21 16.0832 20.3809 17.7427 19.1374 18.8999C17.8765 20.0734 15.6845 21 12 21C10.0066 21 8.44235 20.727 7.23161 20.2906L6.72523 20.1081L4.48452 20.5155L4.77521 18.9167Z" fill="#191817"/>
<rect x="16" y="2" width="8" height="8" rx="4" fill="#F7614A"/>
<circle cx="20" cy="6" r="5" fill="#F7614A" stroke="#F5F3F1" stroke-width="2"/>
</svg>
