<svg width="16" height="16" viewBox="0 0 16 16" fill="none" xmlns="http://www.w3.org/2000/svg">
<path fill-rule="evenodd" clip-rule="evenodd" d="M14.6663 7.99967C14.6663 11.6817 11.6817 14.6663 7.99967 14.6663C4.31767 14.6663 1.33301 11.6817 1.33301 7.99967C1.33301 4.31767 4.31767 1.33301 7.99967 1.33301C11.6817 1.33301 14.6663 4.31767 14.6663 7.99967ZM13.333 7.99967C13.333 9.41416 12.7711 10.7707 11.7709 11.7709C10.7707 12.7711 9.41416 13.333 7.99967 13.333C6.58519 13.333 5.22863 12.7711 4.22844 11.7709C3.22824 10.7707 2.66634 9.41416 2.66634 7.99967C2.66634 6.58519 3.22824 5.22863 4.22844 4.22844C5.22863 3.22824 6.58519 2.66634 7.99967 2.66634C9.41416 2.66634 10.7707 3.22824 11.7709 4.22844C12.7711 5.22863 13.333 6.58519 13.333 7.99967ZM7.16634 10.8283C7.16634 10.3463 7.53301 9.99967 7.99501 9.99967C8.46701 9.99967 8.83301 10.3463 8.83301 10.8283C8.83301 11.3097 8.46634 11.6663 7.99501 11.6663C7.88501 11.6677 7.77587 11.6469 7.6741 11.6052C7.57232 11.5634 7.48001 11.5016 7.40266 11.4234C7.32531 11.3452 7.26452 11.2522 7.22392 11.1499C7.18332 11.0477 7.16373 10.9383 7.16634 10.8283ZM8.14967 4.33301C6.71167 4.33301 5.63301 5.16167 5.63301 6.49967V6.51634C5.63301 6.60475 5.66813 6.68953 5.73064 6.75204C5.79315 6.81456 5.87794 6.84967 5.96634 6.84967H6.50167C6.66167 6.84967 6.79167 6.71967 6.79167 6.55967C6.79167 5.81101 7.37034 5.41167 8.14967 5.41167C8.90834 5.41167 9.40767 5.81101 9.40767 6.38034C9.40767 6.91967 9.12767 7.16901 8.42901 7.48901L8.22901 7.57834C7.64034 7.83834 7.42034 8.22767 7.42034 8.90701V8.99967C7.42034 9.08808 7.45546 9.17286 7.51797 9.23538C7.58048 9.29789 7.66527 9.33301 7.75367 9.33301H8.24568C8.33408 9.33301 8.41886 9.29789 8.48138 9.23538C8.54389 9.17286 8.57901 9.08808 8.57901 8.99967V8.97701C8.57901 8.67701 8.65901 8.55701 8.89901 8.44767L9.09834 8.35767C9.93701 7.97767 10.5663 7.47901 10.5663 6.39034V6.33034C10.5663 5.18167 9.56767 4.33301 8.14967 4.33301Z" fill="#1D1913" fill-opacity="0.51"/>
</svg>
