<svg width="36" height="36" viewBox="0 0 36 36" fill="none" xmlns="http://www.w3.org/2000/svg">
<path d="M13.3242 26.3486L19.3545 27.0723L24.3613 20.9463L22.9043 27.0752L22.9707 27.0547L22.9189 27.0977L30.5322 26.2422C27.8497 30.3126 23.2393 32.9999 18 33C13.9625 33 10.298 31.4041 7.60156 28.8096L15.7002 16.3955L13.3242 26.3486ZM18 3C26.2841 3.00008 33 9.71583 33 18C33 19.2561 32.8436 20.4756 32.5527 21.6416L28.9434 22.3232L30.6748 14.7764L25.5234 11.7891L20.0518 18.5781L22.125 9.84375L14.8242 5.62695L3.76855 22.75C3.27052 21.2572 3.00001 19.6602 3 18C3 9.71578 9.71581 3 18 3Z" fill="#191817"/>
</svg>
